<?xml version="1.0" encoding="UTF-8" standalone="no"?>
<!-- Created with Inkscape (http://www.inkscape.org/) -->

<svg
   xmlns:dc="http://purl.org/dc/elements/1.1/"
   xmlns:cc="http://creativecommons.org/ns#"
   xmlns:rdf="http://www.w3.org/1999/02/22-rdf-syntax-ns#"
   xmlns:svg="http://www.w3.org/2000/svg"
   xmlns="http://www.w3.org/2000/svg"
   xmlns:sodipodi="http://sodipodi.sourceforge.net/DTD/sodipodi-0.dtd"
   xmlns:inkscape="http://www.inkscape.org/namespaces/inkscape"
   version="1.1"
   id="svg3763"
   xml:space="preserve"
   width="800"
   height="800"
   viewBox="0 0 800 800"
   sodipodi:docname="dark.svg"
   inkscape:version="0.92.1 r15371"><metadata
     id="metadata3769"><rdf:RDF><cc:Work
         rdf:about=""><dc:format>image/svg+xml</dc:format><dc:type
           rdf:resource="http://purl.org/dc/dcmitype/StillImage" /><dc:title /></cc:Work></rdf:RDF></metadata><defs
     id="defs3767"><clipPath
       clipPathUnits="userSpaceOnUse"
       id="clipPath3779"><path
         d="M 0,600 H 600 V 0 H 0 Z"
         id="path3777"
         inkscape:connector-curvature="0" /></clipPath></defs><sodipodi:namedview
     pagecolor="#ffffff"
     bordercolor="#666666"
     borderopacity="1"
     objecttolerance="10"
     gridtolerance="10"
     guidetolerance="10"
     inkscape:pageopacity="0"
     inkscape:pageshadow="2"
     inkscape:window-width="2560"
     inkscape:window-height="1377"
     id="namedview3765"
     showgrid="false"
     inkscape:zoom="1.18"
     inkscape:cx="164.71501"
     inkscape:cy="546.65254"
     inkscape:window-x="1912"
     inkscape:window-y="-8"
     inkscape:window-maximized="1"
     inkscape:current-layer="g3771" /><g
     id="g3771"
     inkscape:groupmode="layer"
     inkscape:label="Element Icons"
     transform="matrix(1.3333333,0,0,-1.3333333,0,800)"><g
       id="g3773"><g
         id="g3775"
         clip-path="url(#clipPath3779)"><g
           id="g3781"
           transform="translate(300,28)" /><g
           id="g3785"
           transform="translate(300,580)" /><g
           id="g3789"
           transform="translate(345.8301,154.2148)"><path
             d="m 0,0 c -8.87,0 -17.561,0.8 -26,2.32 6.06,2.781 11.92,5.941 17.54,9.441 1.786,1.112 3.539,2.271 5.276,3.453 73.09,1.203 131.963,59.194 131.963,130.566 0,71.385 -58.877,129.378 -131.971,130.577 -1.739,1.181 -3.492,2.34 -5.279,3.454 -5.619,3.5 -11.469,6.659 -17.529,9.439 8.439,1.521 17.13,2.32 26,2.32 80.38,0 145.779,-65.4 145.779,-145.79 C 145.779,65.4 80.38,0 0,0 M -45.83,7.38 C -52.25,5.24 -58.88,3.55 -65.66,2.32 -74.1,0.8 -82.78,0 -91.65,0 c -80.39,0 -145.79,65.4 -145.79,145.78 0,80.39 65.4,145.79 145.79,145.79 8.87,0 17.55,-0.799 25.99,-2.32 6.78,-1.229 13.41,-2.92 19.83,-5.06 6.019,-1.99 11.87,-4.379 17.51,-7.11 48.75,-23.61 82.45,-73.59 82.45,-131.3 0,-57.7 -33.7,-107.679 -82.45,-131.29 -5.64,-2.729 -11.491,-5.12 -17.51,-7.11 M 0,303.57 c -15.93,0 -31.311,-2.37 -45.82,-6.79 -14.51,4.42 -29.901,6.79 -45.83,6.79 -87.01,0 -157.79,-70.78 -157.79,-157.79 0,-87 70.78,-157.78 157.79,-157.78 15.929,0 31.32,2.37 45.83,6.79 C -31.311,-9.63 -15.93,-12 0,-12 87,-12 157.779,58.78 157.779,145.78 157.779,232.79 87,303.57 0,303.57"
             style="fill:#ffffff;fill-opacity:1;fill-rule:nonzero;stroke:none"
             id="path3791"
             inkscape:connector-curvature="0" /></g></g></g></g></svg>