<?xml version="1.0" encoding="UTF-8" standalone="no"?>
<!-- Created with Inkscape (http://www.inkscape.org/) -->

<svg
   xmlns:dc="http://purl.org/dc/elements/1.1/"
   xmlns:cc="http://creativecommons.org/ns#"
   xmlns:rdf="http://www.w3.org/1999/02/22-rdf-syntax-ns#"
   xmlns:svg="http://www.w3.org/2000/svg"
   xmlns="http://www.w3.org/2000/svg"
   xmlns:sodipodi="http://sodipodi.sourceforge.net/DTD/sodipodi-0.dtd"
   xmlns:inkscape="http://www.inkscape.org/namespaces/inkscape"
   version="1.1"
   id="svg3703"
   xml:space="preserve"
   width="800"
   height="800"
   viewBox="0 0 800 800"
   sodipodi:docname="earth.svg"
   inkscape:version="0.92.1 r15371"><metadata
     id="metadata3709"><rdf:RDF><cc:Work
         rdf:about=""><dc:format>image/svg+xml</dc:format><dc:type
           rdf:resource="http://purl.org/dc/dcmitype/StillImage" /><dc:title /></cc:Work></rdf:RDF></metadata><defs
     id="defs3707"><clipPath
       clipPathUnits="userSpaceOnUse"
       id="clipPath3719"><path
         d="M 0,600 H 600 V 0 H 0 Z"
         id="path3717"
         inkscape:connector-curvature="0" /></clipPath></defs><sodipodi:namedview
     pagecolor="#ffffff"
     bordercolor="#666666"
     borderopacity="1"
     objecttolerance="10"
     gridtolerance="10"
     guidetolerance="10"
     inkscape:pageopacity="0"
     inkscape:pageshadow="2"
     inkscape:window-width="1278"
     inkscape:window-height="1368"
     id="namedview3705"
     showgrid="false"
     inkscape:zoom="1.18"
     inkscape:cx="288.97907"
     inkscape:cy="361.75679"
     inkscape:window-x="1913"
     inkscape:window-y="0"
     inkscape:window-maximized="0"
     inkscape:current-layer="g3711" /><g
     id="g3711"
     inkscape:groupmode="layer"
     inkscape:label="Element Icons"
     transform="matrix(1.3333333,0,0,-1.3333333,0,800)"><g
       id="g3713"><g
         id="g3715"
         clip-path="url(#clipPath3719)"><g
           id="g3721"
           transform="translate(300,28)" /><g
           id="g3725"
           transform="translate(300,580)" /><g
           id="g3729"
           transform="translate(191.8486,205.1455)"><path
             d="m 0,0 c -0.423,-4 -4.892,-6.179 -8.264,-3.987 -24.283,15.779 -85.571,80.677 -11.571,162.809 73.487,81.563 169.567,37.861 265.702,95.873 2.907,1.755 6.665,0.165 7.401,-3.15 13.134,-59.172 20.961,-187.976 -39.103,-247.223 -73.5,-72.5 -133.5,-40.5 -166,-29 -1.5,-18 4.501,-41.921 9.501,-58.421 5,-16.5 -27.001,-21.079 -31.001,-18.079 -4,3 -18.611,83.753 18.5,133 47.5,63.032 163,118 166.5,162.5 -22.5,-20 -51.809,-46.518 -129,-89.5 C 14.221,66.711 2.036,19.224 0,0"
             style="fill:#ffffff;fill-opacity:1;fill-rule:nonzero;stroke:none"
             id="path3731"
             inkscape:connector-curvature="0" /></g></g></g></g></svg>