<?xml version="1.0" encoding="UTF-8" standalone="no"?>
<!-- Created with Inkscape (http://www.inkscape.org/) -->

<svg
   xmlns:dc="http://purl.org/dc/elements/1.1/"
   xmlns:cc="http://creativecommons.org/ns#"
   xmlns:rdf="http://www.w3.org/1999/02/22-rdf-syntax-ns#"
   xmlns:svg="http://www.w3.org/2000/svg"
   xmlns="http://www.w3.org/2000/svg"
   xmlns:sodipodi="http://sodipodi.sourceforge.net/DTD/sodipodi-0.dtd"
   xmlns:inkscape="http://www.inkscape.org/namespaces/inkscape"
   version="1.1"
   id="svg2"
   xml:space="preserve"
   width="800"
   height="800"
   viewBox="0 0 800 800"
   sodipodi:docname="fire.svg"
   inkscape:version="0.92.1 r15371"><metadata
     id="metadata8"><rdf:RDF><cc:Work
         rdf:about=""><dc:format>image/svg+xml</dc:format><dc:type
           rdf:resource="http://purl.org/dc/dcmitype/StillImage" /><dc:title /></cc:Work></rdf:RDF></metadata><defs
     id="defs6"><clipPath
       clipPathUnits="userSpaceOnUse"
       id="clipPath18"><path
         d="M 0,600 H 600 V 0 H 0 Z"
         id="path16"
         inkscape:connector-curvature="0" /></clipPath></defs><sodipodi:namedview
     pagecolor="#ffffff"
     bordercolor="#666666"
     borderopacity="1"
     objecttolerance="10"
     gridtolerance="10"
     guidetolerance="10"
     inkscape:pageopacity="0"
     inkscape:pageshadow="2"
     inkscape:window-width="2560"
     inkscape:window-height="1377"
     id="namedview4"
     showgrid="false"
     inkscape:zoom="0.834386"
     inkscape:cx="48.766968"
     inkscape:cy="438.85049"
     inkscape:window-x="1912"
     inkscape:window-y="-8"
     inkscape:window-maximized="1"
     inkscape:current-layer="g10" /><g
     id="g10"
     inkscape:groupmode="layer"
     inkscape:label="Element Icons"
     transform="matrix(1.3333333,0,0,-1.3333333,0,800)"><g
       id="g12"><g
         id="g14"
         clip-path="url(#clipPath18)"><g
           id="g20"
           transform="translate(300,28)" /><g
           id="g24"
           transform="translate(300,580)" /><g
           id="g28"
           transform="translate(386.0616,369.9458)"><path
             d="m 0,0 c -42.5,34.5 -58.5,99.5 -47,143.5 -25.5,-2.5 -66.272,-25.288 -83.5,-89.5 -22,-82 43.996,-140.5 0,-170.5 -51.444,-35.079 -86.5,26 -82,82.5 -30,-23.5 -48.447,-119.579 -9.5,-178 28,-42 63.811,-66.136 109.516,-71.391 -14.745,10.442 -15.741,29.913 -10.516,44.891 7.5,21.5 32.239,31.107 55.5,49 26,20 37,40 38.5,49.5 13,-19.5 28.581,-48.317 15.5,-91 -6.013,-19.62 -16.979,-38.34 -34.339,-49.45 C 7.137,-266.249 71.825,-218.559 72,-134.5 72.156,-59.5 34.135,-27.709 0,0"
             style="fill:#ffffff;fill-opacity:1;fill-rule:nonzero;stroke:none"
             id="path30"
             inkscape:connector-curvature="0" /></g></g></g></g></svg>