<?xml version="1.0" encoding="UTF-8" standalone="no"?>
<!-- Created with Inkscape (http://www.inkscape.org/) -->

<svg
   xmlns:dc="http://purl.org/dc/elements/1.1/"
   xmlns:cc="http://creativecommons.org/ns#"
   xmlns:rdf="http://www.w3.org/1999/02/22-rdf-syntax-ns#"
   xmlns:svg="http://www.w3.org/2000/svg"
   xmlns="http://www.w3.org/2000/svg"
   xmlns:sodipodi="http://sodipodi.sourceforge.net/DTD/sodipodi-0.dtd"
   xmlns:inkscape="http://www.inkscape.org/namespaces/inkscape"
   version="1.1"
   id="svg2"
   xml:space="preserve"
   width="800"
   height="800"
   viewBox="0 0 800 800"
   sodipodi:docname="wind.svg"
   inkscape:version="0.92.1 r15371"><metadata
     id="metadata8"><rdf:RDF><cc:Work
         rdf:about=""><dc:format>image/svg+xml</dc:format><dc:type
           rdf:resource="http://purl.org/dc/dcmitype/StillImage" /><dc:title /></cc:Work></rdf:RDF></metadata><defs
     id="defs6"><clipPath
       clipPathUnits="userSpaceOnUse"
       id="clipPath18"><path
         d="M 0,600 H 600 V 0 H 0 Z"
         id="path16"
         inkscape:connector-curvature="0" /></clipPath></defs><sodipodi:namedview
     pagecolor="#ffffff"
     bordercolor="#666666"
     borderopacity="1"
     objecttolerance="10"
     gridtolerance="10"
     guidetolerance="10"
     inkscape:pageopacity="0"
     inkscape:pageshadow="2"
     inkscape:window-width="1278"
     inkscape:window-height="1368"
     id="namedview4"
     showgrid="false"
     inkscape:zoom="0.295"
     inkscape:cx="-325.42373"
     inkscape:cy="400"
     inkscape:window-x="1913"
     inkscape:window-y="0"
     inkscape:window-maximized="0"
     inkscape:current-layer="g10" /><g
     id="g10"
     inkscape:groupmode="layer"
     inkscape:label="Element Icons"
     transform="matrix(1.3333333,0,0,-1.3333333,0,800)"><g
       id="g12"><g
         id="g14"
         clip-path="url(#clipPath18)"><g
           id="g20"
           transform="translate(300,28)" /><g
           id="g24"
           transform="translate(300,580)" /><g
           id="g28"
           transform="translate(78.6426,272.7793)"><path
             d="m 0,0 c -1.381,0.291 -1.32,2.293 0.079,2.479 12.504,1.672 42.559,2.757 81.66,-15.666 52,-24.5 135.969,-79.236 185.7,-76.263 42.05,2.513 62.531,18.325 60.3,37.763 -1.75,15.25 -18.75,25.25 -31.75,20.25 -13,-5 -18.75,-16.75 -17.75,-27.75 -11,8.5 -7,25 -3.5,29.5 3.5,4.5 22.692,30.667 55.5,8 27.5,-19 15.875,-56.014 0,-70 -10.5,-9.25 -42,-32.5 -101.5,-17.5 -59.5,15 -123.649,69.333 -157.5,85.5 C 40.085,-8.808 26.661,-5.604 0,0"
             style="fill:#ffffff;fill-opacity:1;fill-rule:nonzero;stroke:none"
             id="path30"
             inkscape:connector-curvature="0" /></g><g
           id="g32"
           transform="translate(168.0537,279.374)"><path
             d="m 0,0 c -0.97,0.531 -0.358,2.014 0.7,1.69 22.24,-6.79 78.774,-19.585 119.628,-8.971 59.667,15.5 70.5,50.999 130,79.833 37.951,18.39 87.5,5.166 101,-31.834 13.5,-36.999 -21.667,-62.499 -49.5,-60.999 -22.972,1.237 -38.491,14.355 -41.5,25.019 -3.333,11.814 1.333,27.147 15,31.48 -4,-17.999 5.786,-37.679 26,-36.499 20,1.166 37.667,26.222 19,44.999 -18.696,18.807 -42,15.167 -56,6.5 -14.928,-9.241 -50,-43.999 -80,-58.499 C 155.538,-21.196 113.368,-36.377 69.761,-24.782 32.61,-14.904 21.208,-11.607 0,0"
             style="fill:#ffffff;fill-opacity:1;fill-rule:nonzero;stroke:none"
             id="path34"
             inkscape:connector-curvature="0" /></g><g
           id="g36"
           transform="translate(111.6816,313.1714)"><path
             d="m 0,0 c -1.263,0.484 -0.869,2.371 0.483,2.316 17.13,-0.694 65.046,0.092 90.217,28.105 31,34.5 23.941,58.037 51.5,83 19.25,17.436 63.27,22.991 94.25,-3.5 C 270.95,80.421 252.617,22.837 218.367,5.087 189.365,-9.942 152.95,-5.079 144.7,18.421 c -9.187,26.169 9.75,49.25 29,49 20.302,-0.264 17.5,-20.5 17.5,-20.5 0,0 -6,10.495 -14.25,9.25 -10.455,-1.577 -19.681,-14.673 -14.25,-27.75 6.75,-16.25 35.777,-23.443 56.667,1.333 21.5,25.5 16.833,60.167 -18.667,72.667 C 167.89,113.974 148.652,89.774 131.2,57.416 117.45,31.921 101.95,-0.579 54.7,-3.299 20.066,-5.293 6.654,-2.553 0,0"
             style="fill:#ffffff;fill-opacity:1;fill-rule:nonzero;stroke:none"
             id="path38"
             inkscape:connector-curvature="0" /></g></g></g></g></svg>