<?xml version="1.0" encoding="UTF-8" standalone="no"?>
<!-- Created with Inkscape (http://www.inkscape.org/) -->

<svg
   xmlns:dc="http://purl.org/dc/elements/1.1/"
   xmlns:cc="http://creativecommons.org/ns#"
   xmlns:rdf="http://www.w3.org/1999/02/22-rdf-syntax-ns#"
   xmlns:svg="http://www.w3.org/2000/svg"
   xmlns="http://www.w3.org/2000/svg"
   xmlns:sodipodi="http://sodipodi.sourceforge.net/DTD/sodipodi-0.dtd"
   xmlns:inkscape="http://www.inkscape.org/namespaces/inkscape"
   version="1.1"
   id="svg3680"
   xml:space="preserve"
   width="400"
   height="400"
   viewBox="0 0 400 400"
   sodipodi:docname="attack.svg"
   inkscape:version="0.92.1 r15371"><title
     id="title3710">attack.svg</title><metadata
     id="metadata3686"><rdf:RDF><cc:Work
         rdf:about=""><dc:format>image/svg+xml</dc:format><dc:type
           rdf:resource="http://purl.org/dc/dcmitype/StillImage" /><dc:title>attack.svg</dc:title></cc:Work></rdf:RDF></metadata><defs
     id="defs3684"><clipPath
       clipPathUnits="userSpaceOnUse"
       id="clipPath3700"><path
         d="M 0,300 H 300 V 0 H 0 Z"
         id="path3698"
         inkscape:connector-curvature="0" /></clipPath></defs><sodipodi:namedview
     pagecolor="#ffffff"
     bordercolor="#666666"
     borderopacity="1"
     objecttolerance="10"
     gridtolerance="10"
     guidetolerance="10"
     inkscape:pageopacity="0"
     inkscape:pageshadow="2"
     inkscape:window-width="2560"
     inkscape:window-height="1377"
     id="namedview3682"
     showgrid="false"
     inkscape:zoom="3.02"
     inkscape:cx="164.56954"
     inkscape:cy="200"
     inkscape:window-x="1912"
     inkscape:window-y="-8"
     inkscape:window-maximized="1"
     inkscape:current-layer="g3688" /><g
     id="g3688"
     inkscape:groupmode="layer"
     inkscape:label="General Icons"
     transform="matrix(1.3333333,0,0,-1.3333333,0,400)"><g
       id="g3690"
       transform="translate(101.892,54.0625)"
       style="fill:#f9f9f9"><path
         d="m 0,0 -6.907,-4.933 -50.887,46.962 4.363,7.281 13.994,-12.914 87.349,94.649 29.862,6.833 -4.419,-30.314 -87.348,-94.65 z"
         style="fill:#f9f9f9;fill-opacity:1;fill-rule:nonzero;stroke:none"
         id="path3692"
         inkscape:connector-curvature="0" /></g><g
       id="g3694"
       style="fill:#f9f9f9"><g
         id="g3696"
         clip-path="url(#clipPath3700)"
         style="fill:#f9f9f9"><g
           id="g3702"
           transform="translate(72.1644,62.1807)"
           style="fill:#f9f9f9"><path
             d="m 0,0 -25.629,-27.772 c 0,0 -4.416,-0.636 -8.964,3.561 -4.548,4.196 -4.266,8.648 -4.266,8.648 L -13.23,12.21 Z"
             style="fill:#f9f9f9;fill-opacity:1;fill-rule:nonzero;stroke:none"
             id="path3704"
             inkscape:connector-curvature="0" /></g><g
           id="g3706"
           transform="translate(96.7475,153.3145)"
           style="fill:#f9f9f9"><path
             d="m 0,0 10.053,6.239 -18.657,23.442 38.414,4.15 1.734,34.457 22.403,-14.066 35.487,17.186 4.746,-39.734 26.798,-6.716 -22.185,-13.186 15.945,-28.411 -30.957,0.945 -2.706,-38.642 -24.357,18.687 -5.471,-10.492 42.111,-63.102 6.44,76.617 62.587,-21.949 -38.566,61.081 46.132,21.026 -56.652,19.033 -3.414,65.747 L 54.943,73.555 9.382,106.114 11.979,51.79 -62.572,48.581 Z"
             style="fill:#f9f9f9;fill-opacity:1;fill-rule:nonzero;stroke:none"
             id="path3708"
             inkscape:connector-curvature="0" /></g></g></g></g></svg>