<?xml version="1.0" encoding="UTF-8" standalone="no"?>
<!-- Created with Inkscape (http://www.inkscape.org/) -->

<svg
   xmlns:dc="http://purl.org/dc/elements/1.1/"
   xmlns:cc="http://creativecommons.org/ns#"
   xmlns:rdf="http://www.w3.org/1999/02/22-rdf-syntax-ns#"
   xmlns:svg="http://www.w3.org/2000/svg"
   xmlns="http://www.w3.org/2000/svg"
   xmlns:sodipodi="http://sodipodi.sourceforge.net/DTD/sodipodi-0.dtd"
   xmlns:inkscape="http://www.inkscape.org/namespaces/inkscape"
   version="1.1"
   id="svg4246"
   xml:space="preserve"
   width="400"
   height="400"
   viewBox="0 0 400 400"
   sodipodi:docname="jump.svg"
   inkscape:version="0.92.1 r15371"><metadata
     id="metadata4252"><rdf:RDF><cc:Work
         rdf:about=""><dc:format>image/svg+xml</dc:format><dc:type
           rdf:resource="http://purl.org/dc/dcmitype/StillImage" /><dc:title /></cc:Work></rdf:RDF></metadata><defs
     id="defs4250"><clipPath
       clipPathUnits="userSpaceOnUse"
       id="clipPath4262"><path
         d="M 0,300 H 300 V 0 H 0 Z"
         id="path4260"
         inkscape:connector-curvature="0" /></clipPath></defs><sodipodi:namedview
     pagecolor="#ffffff"
     bordercolor="#666666"
     borderopacity="1"
     objecttolerance="10"
     gridtolerance="10"
     guidetolerance="10"
     inkscape:pageopacity="0"
     inkscape:pageshadow="2"
     inkscape:window-width="948"
     inkscape:window-height="480"
     id="namedview4248"
     showgrid="false"
     inkscape:zoom="0.59"
     inkscape:cx="-162.71186"
     inkscape:cy="200"
     inkscape:window-x="2071"
     inkscape:window-y="360"
     inkscape:window-maximized="0"
     inkscape:current-layer="g4254" /><g
     id="g4254"
     inkscape:groupmode="layer"
     inkscape:label="General Icons"
     transform="matrix(1.3333333,0,0,-1.3333333,0,400)"><g
       id="g4256"
       style="fill:#f9f9f9"><g
         id="g4258"
         clip-path="url(#clipPath4262)"
         style="fill:#f9f9f9"><g
           id="g4264"
           transform="translate(129.5013,124.2959)"
           style="fill:#f9f9f9"><path
             d="m 0,0 c -22.726,0 -41.146,-9.21 -41.146,-20.573 0,-11.363 18.42,-20.573 41.146,-20.573 22.72,0 41.146,9.21 41.146,20.573 C 41.146,-9.21 22.72,0 0,0"
             style="fill:#f9f9f9;fill-opacity:1;fill-rule:nonzero;stroke:none"
             id="path4266"
             inkscape:connector-curvature="0" /></g><g
           id="g4268"
           transform="translate(166.8929,148.1709)"
           style="fill:#f9f9f9"><path
             d="M 0,0 C -2.39,-3.46 -4.438,-7.159 -6.105,-11.045 H 3.409 L 44.213,-46.383 3.409,-81.719 h -81.606 l -40.804,35.336 40.804,35.338 h 17.202 c 0.811,3.735 1.81,7.42 2.988,11.045 h -32.945 l -53.559,-46.383 53.559,-46.384 H 16.164 L 69.722,-46.383 16.164,0 Z"
             style="fill:#f9f9f9;fill-opacity:1;fill-rule:nonzero;stroke:none"
             id="path4270"
             inkscape:connector-curvature="0" /></g><g
           id="g4272"
           transform="translate(129.4993,94.7012)"
           style="fill:#f9f9f9"><path
             d="m 0,0 c -9.896,0 -17.949,8.052 -17.949,17.949 0,26.7 9.938,52.28 27.984,72.026 16.786,18.366 39.202,30.229 63.57,33.742 v 26.177 L 148.118,106.868 73.605,63.841 V 87.256 C 41.471,80.177 17.95,51.424 17.95,17.949 17.95,8.052 9.897,0 0,0"
             style="fill:#f9f9f9;fill-opacity:1;fill-rule:nonzero;stroke:none"
             id="path4274"
             inkscape:connector-curvature="0" /></g></g></g></g></svg>