<?xml version="1.0" encoding="UTF-8" standalone="no"?>
<!-- Created with Inkscape (http://www.inkscape.org/) -->

<svg
   xmlns:dc="http://purl.org/dc/elements/1.1/"
   xmlns:cc="http://creativecommons.org/ns#"
   xmlns:rdf="http://www.w3.org/1999/02/22-rdf-syntax-ns#"
   xmlns:svg="http://www.w3.org/2000/svg"
   xmlns="http://www.w3.org/2000/svg"
   xmlns:sodipodi="http://sodipodi.sourceforge.net/DTD/sodipodi-0.dtd"
   xmlns:inkscape="http://www.inkscape.org/namespaces/inkscape"
   version="1.1"
   id="svg2"
   xml:space="preserve"
   width="400"
   height="400"
   viewBox="0 0 400 400"
   sodipodi:docname="loot.svg"
   inkscape:version="0.92.4 (5da689c313, 2019-01-14)"><metadata
     id="metadata8"><rdf:RDF><cc:Work
         rdf:about=""><dc:format>image/svg+xml</dc:format><dc:type
           rdf:resource="http://purl.org/dc/dcmitype/StillImage" /><dc:title></dc:title></cc:Work></rdf:RDF></metadata><defs
     id="defs6"><clipPath
       clipPathUnits="userSpaceOnUse"
       id="clipPath18"><path
         d="M 0,300 H 300 V 0 H 0 Z"
         id="path16"
         inkscape:connector-curvature="0" /></clipPath></defs><sodipodi:namedview
     pagecolor="#ffffff"
     bordercolor="#666666"
     borderopacity="1"
     objecttolerance="10"
     gridtolerance="10"
     guidetolerance="10"
     inkscape:pageopacity="0"
     inkscape:pageshadow="2"
     inkscape:window-width="1920"
     inkscape:window-height="1001"
     id="namedview4"
     showgrid="false"
     inkscape:zoom="0.59"
     inkscape:cx="200"
     inkscape:cy="200"
     inkscape:window-x="-9"
     inkscape:window-y="-9"
     inkscape:window-maximized="1"
     inkscape:current-layer="g10" /><g
     id="g10"
     inkscape:groupmode="layer"
     inkscape:label="General Icons"
     transform="matrix(1.3333333,0,0,-1.3333333,0,400)"><g
       id="g12"
       style="fill:#f9f9f9"><g
         id="g14"
         clip-path="url(#clipPath18)"
         style="fill:#f9f9f9"><g
           id="g20"
           transform="translate(264.0003,65.6006)"
           style="fill:#f9f9f9"><path
             d="m 0,0 v -2.54 c 0,-28.721 -51.04,-52 -114,-52 -62.96,0 -114,23.279 -114,52 0,0.239 0.01,0.479 0.02,0.72 v 1.79 c 6.65,-7.83 16.5,-14.83 29.219,-20.63 22.811,-10.401 52.91,-16.13 84.761,-16.13 31.85,0 61.95,5.729 84.76,16.13 C -16.5,-14.851 -6.65,-7.841 0,0"
             style="fill:#f9f9f9;fill-opacity:1;fill-rule:nonzero;stroke:none"
             id="path22"
             inkscape:connector-curvature="0" /></g><g
           id="g24"
           transform="translate(264.0003,90.8096)"
           style="fill:#f9f9f9"><path
             d="m 0,0 c 0,-28.72 -51.04,-52 -114,-52 -62.96,0 -114,23.28 -114,52 0,21.69 29.12,40.28 70.5,48.07 V -10 h 87 V 48.07 C -29.12,40.28 0,21.69 0,0"
             style="fill:#f9f9f9;fill-opacity:1;fill-rule:nonzero;stroke:none"
             id="path26"
             inkscape:connector-curvature="0" /></g><g
           id="g28"
           transform="translate(226.2903,156.8198)"
           style="fill:#f9f9f9"><path
             d="m 0,0 h -42.79 v -66.01 h -67 V 0 h -42.79 l 76.29,132.12 z"
             style="fill:#f9f9f9;fill-opacity:1;fill-rule:nonzero;stroke:none"
             id="path30"
             inkscape:connector-curvature="0" /></g></g></g></g></svg>