<?xml version="1.0" encoding="UTF-8" standalone="no"?>
<!-- Created with Inkscape (http://www.inkscape.org/) -->

<svg
   xmlns:dc="http://purl.org/dc/elements/1.1/"
   xmlns:cc="http://creativecommons.org/ns#"
   xmlns:rdf="http://www.w3.org/1999/02/22-rdf-syntax-ns#"
   xmlns:svg="http://www.w3.org/2000/svg"
   xmlns="http://www.w3.org/2000/svg"
   xmlns:sodipodi="http://sodipodi.sourceforge.net/DTD/sodipodi-0.dtd"
   xmlns:inkscape="http://www.inkscape.org/namespaces/inkscape"
   version="1.1"
   id="svg3738"
   xml:space="preserve"
   width="400"
   height="400"
   viewBox="0 0 400 400"
   sodipodi:docname="range.svg"
   inkscape:version="0.92.1 r15371"><metadata
     id="metadata3744"><rdf:RDF><cc:Work
         rdf:about=""><dc:format>image/svg+xml</dc:format><dc:type
           rdf:resource="http://purl.org/dc/dcmitype/StillImage" /><dc:title></dc:title></cc:Work></rdf:RDF></metadata><defs
     id="defs3742"><clipPath
       clipPathUnits="userSpaceOnUse"
       id="clipPath3754"><path
         d="M 0,300 H 300 V 0 H 0 Z"
         id="path3752"
         inkscape:connector-curvature="0" /></clipPath></defs><sodipodi:namedview
     pagecolor="#ffffff"
     bordercolor="#666666"
     borderopacity="1"
     objecttolerance="10"
     gridtolerance="10"
     guidetolerance="10"
     inkscape:pageopacity="0"
     inkscape:pageshadow="2"
     inkscape:window-width="1278"
     inkscape:window-height="1368"
     id="namedview3740"
     showgrid="false"
     inkscape:zoom="0.59"
     inkscape:cx="18.644068"
     inkscape:cy="200"
     inkscape:window-x="1913"
     inkscape:window-y="0"
     inkscape:window-maximized="0"
     inkscape:current-layer="g3746" /><g
     id="g3746"
     inkscape:groupmode="layer"
     inkscape:label="General Icons"
     transform="matrix(1.3333333,0,0,-1.3333333,0,400)"><g
       id="g3748"><g
         id="g3750"
         clip-path="url(#clipPath3754)"><g
           id="g3756"
           transform="translate(83.5189,108.5928)"><path
             d="m 0,0 -16.316,129.236 c 0.024,-0.02 0.046,-0.036 0.071,-0.055 10.503,-8.434 26.666,-6.715 42.221,-15.298 13.848,-7.645 27.632,-19.576 54.168,-56.893 26.536,-37.317 33.279,-54.255 35.954,-69.845 3,-17.511 -3.931,-32.214 0.587,-44.904 0.01,-0.029 0.018,-0.055 0.028,-0.085 z m 127.398,-49.345 c -0.273,13.057 6.858,25.019 3.338,46.368 -3.52,21.35 -22.37,48.231 -37.39,69.354 -15.021,21.123 -34.222,47.754 -53.233,58.089 -19.009,10.335 -32.65,7.527 -44.893,12.072 -12.243,4.546 -18.267,17.489 -22.491,14.485 -2.374,-1.687 -1.914,-5.717 0.812,-10.415 L -8.282,-3.381 -5.914,-6.712 124.124,-71.158 c 3.543,-4.117 7.199,-5.875 9.571,-4.188 4.225,3.004 -6.023,12.945 -6.297,26.001"
             style="fill:#231f20;fill-opacity:1;fill-rule:nonzero;stroke:none"
             id="path3758"
             inkscape:connector-curvature="0" /></g><g
           id="g3760"
           transform="translate(111.7698,118.2012)"><path
             d="m 0,0 3.535,-15.243 -35.718,-24.883 -5.648,24.342 -21.138,13.327 35.718,24.884 13.238,-8.344 96.054,68.182 -13.921,8.552 59.46,13.228 -32.018,-51.819 -3.507,15.957 z"
             style="fill:#231f20;fill-opacity:1;fill-rule:nonzero;stroke:none"
             id="path3762"
             inkscape:connector-curvature="0" /></g></g></g></g></svg>