<?xml version="1.0" encoding="UTF-8" standalone="no"?>
<!-- Created with Inkscape (http://www.inkscape.org/) -->

<svg
   xmlns:dc="http://purl.org/dc/elements/1.1/"
   xmlns:cc="http://creativecommons.org/ns#"
   xmlns:rdf="http://www.w3.org/1999/02/22-rdf-syntax-ns#"
   xmlns:svg="http://www.w3.org/2000/svg"
   xmlns="http://www.w3.org/2000/svg"
   xmlns:sodipodi="http://sodipodi.sourceforge.net/DTD/sodipodi-0.dtd"
   xmlns:inkscape="http://www.inkscape.org/namespaces/inkscape"
   version="1.1"
   id="svg4298"
   xml:space="preserve"
   width="400"
   height="400"
   viewBox="0 0 400 400"
   sodipodi:docname="shield.svg"
   inkscape:version="0.92.1 r15371"><metadata
     id="metadata4304"><rdf:RDF><cc:Work
         rdf:about=""><dc:format>image/svg+xml</dc:format><dc:type
           rdf:resource="http://purl.org/dc/dcmitype/StillImage" /><dc:title></dc:title></cc:Work></rdf:RDF></metadata><defs
     id="defs4302"><clipPath
       clipPathUnits="userSpaceOnUse"
       id="clipPath4314"><path
         d="M 0,300 H 300 V 0 H 0 Z"
         id="path4312"
         inkscape:connector-curvature="0" /></clipPath></defs><sodipodi:namedview
     pagecolor="#ffffff"
     bordercolor="#666666"
     borderopacity="1"
     objecttolerance="10"
     gridtolerance="10"
     guidetolerance="10"
     inkscape:pageopacity="0"
     inkscape:pageshadow="2"
     inkscape:window-width="640"
     inkscape:window-height="480"
     id="namedview4300"
     showgrid="false"
     inkscape:zoom="0.59"
     inkscape:cx="18.644068"
     inkscape:cy="200"
     inkscape:window-x="0"
     inkscape:window-y="360"
     inkscape:window-maximized="0"
     inkscape:current-layer="g4306" /><g
     id="g4306"
     inkscape:groupmode="layer"
     inkscape:label="General Icons"
     transform="matrix(1.3333333,0,0,-1.3333333,0,400)"><g
       id="g4308"><g
         id="g4310"
         clip-path="url(#clipPath4314)"><g
           id="g4316"
           transform="translate(260.2741,241.6924)"><path
             d="m 0,0 c 0.49,1.955 -0.669,3.942 -2.609,4.487 -27.946,7.849 -88.191,9.827 -107.665,19.404 -19.474,-9.577 -79.719,-11.555 -107.665,-19.404 -1.94,-0.545 -3.099,-2.532 -2.609,-4.487 14.509,-57.853 -13.349,-87.76 -6.732,-129.802 7.503,-47.677 92.543,-55.038 117.006,-77.474 24.462,22.436 109.503,29.797 117.006,77.474 C 13.349,-87.76 -14.51,-57.853 0,0"
             style="fill:#231f20;fill-opacity:1;fill-rule:nonzero;stroke:none"
             id="path4318"
             inkscape:connector-curvature="0" /></g></g></g></g></svg>