<?xml version="1.0" encoding="UTF-8" standalone="no"?>
<!-- Created with Inkscape (http://www.inkscape.org/) -->

<svg
   xmlns:dc="http://purl.org/dc/elements/1.1/"
   xmlns:cc="http://creativecommons.org/ns#"
   xmlns:rdf="http://www.w3.org/1999/02/22-rdf-syntax-ns#"
   xmlns:svg="http://www.w3.org/2000/svg"
   xmlns="http://www.w3.org/2000/svg"
   xmlns:sodipodi="http://sodipodi.sourceforge.net/DTD/sodipodi-0.dtd"
   xmlns:inkscape="http://www.inkscape.org/namespaces/inkscape"
   version="1.1"
   id="svg4062"
   xml:space="preserve"
   width="800"
   height="800"
   viewBox="0 0 800 800"
   sodipodi:docname="invisible.svg"
   inkscape:version="0.92.1 r15371"><metadata
     id="metadata4068"><rdf:RDF><cc:Work
         rdf:about=""><dc:format>image/svg+xml</dc:format><dc:type
           rdf:resource="http://purl.org/dc/dcmitype/StillImage" /><dc:title></dc:title></cc:Work></rdf:RDF></metadata><defs
     id="defs4066"><clipPath
       clipPathUnits="userSpaceOnUse"
       id="clipPath4078"><path
         d="M 0,600 H 600 V 0 H 0 Z"
         id="path4076"
         inkscape:connector-curvature="0" /></clipPath></defs><sodipodi:namedview
     pagecolor="#ffffff"
     bordercolor="#666666"
     borderopacity="1"
     objecttolerance="10"
     gridtolerance="10"
     guidetolerance="10"
     inkscape:pageopacity="0"
     inkscape:pageshadow="2"
     inkscape:window-width="640"
     inkscape:window-height="480"
     id="namedview4064"
     showgrid="false"
     inkscape:zoom="0.295"
     inkscape:cx="37.288136"
     inkscape:cy="400"
     inkscape:window-x="2955"
     inkscape:window-y="631"
     inkscape:window-maximized="0"
     inkscape:current-layer="g4070" /><g
     id="g4070"
     inkscape:groupmode="layer"
     inkscape:label="Status Effect Icons"
     transform="matrix(1.3333333,0,0,-1.3333333,0,800)"><g
       id="g4072"><g
         id="g4074"
         clip-path="url(#clipPath4078)"><g
           id="g4080"
           transform="translate(300,15.6523)"><path
             d="m 0,0 c -3.922,0 -7.608,1.527 -10.382,4.3 l -269.666,269.666 c -5.723,5.724 -5.723,15.039 0,20.763 l 269.666,269.667 c 2.774,2.772 6.46,4.299 10.382,4.299 3.922,0 7.608,-1.527 10.382,-4.299 L 280.048,294.729 c 5.723,-5.724 5.723,-15.039 0,-20.763 L 10.382,4.3 C 7.608,1.527 3.922,0 0,0"
             style="fill:#191715;fill-opacity:1;fill-rule:nonzero;stroke:none"
             id="path4082"
             inkscape:connector-curvature="0" /></g><g
           id="g4084"
           transform="translate(300,589.3475)"><path
             d="m 0,0 c -5.037,0 -10.073,-1.921 -13.917,-5.765 l -269.666,-269.666 c -7.687,-7.686 -7.687,-20.147 0,-27.834 l 269.666,-269.666 c 3.844,-3.842 8.88,-5.764 13.917,-5.764 5.037,0 10.073,1.922 13.917,5.764 l 269.666,269.666 c 7.687,7.687 7.687,20.148 0,27.834 L 13.917,-5.765 C 10.073,-1.921 5.037,0 0,0 m 0,-10 c 2.586,0 5.017,-1.007 6.846,-2.835 l 269.667,-269.667 c 1.828,-1.828 2.835,-4.26 2.835,-6.846 0,-2.586 -1.007,-5.016 -2.835,-6.845 L 6.846,-565.859 c -1.829,-1.829 -4.26,-2.836 -6.846,-2.836 -2.586,0 -5.017,1.007 -6.846,2.836 l -269.667,269.666 c -1.828,1.829 -2.835,4.259 -2.835,6.845 0,2.586 1.007,5.018 2.835,6.846 L -6.846,-12.835 C -5.017,-11.007 -2.586,-10 0,-10"
             style="fill:#ffffff;fill-opacity:1;fill-rule:nonzero;stroke:none"
             id="path4086"
             inkscape:connector-curvature="0" /></g><g
           id="g4088"
           transform="translate(342.4395,433.6796)"><path
             d="m 0,0 c 0,-23.438 -19.001,-42.438 -42.439,-42.438 -23.439,0 -42.44,19 -42.44,42.438 0,23.439 19.001,42.439 42.44,42.439 C -19.001,42.439 0,23.439 0,0"
             style="fill:#191715;fill-opacity:1;fill-rule:nonzero;stroke:none"
             id="path4090"
             inkscape:connector-curvature="0" /></g><g
           id="g4092"
           transform="translate(342.4395,433.6796)"><path
             d="m 0,0 c 0,-23.438 -19.001,-42.438 -42.439,-42.438 -23.439,0 -42.44,19 -42.44,42.438 0,23.439 19.001,42.439 42.44,42.439 C -19.001,42.439 0,23.439 0,0 Z"
             style="fill:none;stroke:#ffffff;stroke-width:15;stroke-linecap:round;stroke-linejoin:miter;stroke-miterlimit:10;stroke-dasharray:14.81, 29.62;stroke-dashoffset:0;stroke-opacity:1"
             id="path4094"
             inkscape:connector-curvature="0" /></g><g
           id="g4096"
           transform="translate(240.4043,165.4823)"><path
             d="m 0,0 50.096,191.962 h 19 L 119.191,0 c 0,0 -16.081,-12.102 -53.454,-12.102 C 28.365,-12.102 0,0 0,0"
             style="fill:#191715;fill-opacity:1;fill-rule:nonzero;stroke:none"
             id="path4098"
             inkscape:connector-curvature="0" /></g><g
           id="g4100"
           transform="translate(247.4414,162.9013)"><path
             d="m 0,0 c -4.521,1.508 -7.037,2.581 -7.037,2.581 l 1.893,7.257"
             style="fill:none;stroke:#ffffff;stroke-width:15;stroke-linecap:round;stroke-linejoin:round;stroke-miterlimit:4;stroke-dasharray:none;stroke-opacity:1"
             id="path4102"
             inkscape:connector-curvature="0" /></g><g
           id="g4104"
           transform="translate(250.7178,205.0028)"><path
             d="M 0,0 33.679,129.053"
             style="fill:none;stroke:#ffffff;stroke-width:15;stroke-linecap:round;stroke-linejoin:round;stroke-miterlimit:4;stroke-dasharray:16.672, 33.344;stroke-dashoffset:0;stroke-opacity:1"
             id="path4106"
             inkscape:connector-curvature="0" /></g><g
           id="g4108"
           transform="translate(288.6064,350.1874)"><path
             d="m 0,0 1.894,7.257 h 7.5"
             style="fill:none;stroke:#ffffff;stroke-width:15;stroke-linecap:round;stroke-linejoin:round;stroke-miterlimit:4;stroke-dasharray:none;stroke-opacity:1"
             id="path4110"
             inkscape:connector-curvature="0" /></g><g
           id="g4112"
           transform="translate(302,357.4442)"><path
             d="M 0,0 H 7.5 L 9.394,-7.257"
             style="fill:none;stroke:#ffffff;stroke-width:15;stroke-linecap:round;stroke-linejoin:round;stroke-miterlimit:4;stroke-dasharray:none;stroke-opacity:1"
             id="path4114"
             inkscape:connector-curvature="0" /></g><g
           id="g4116"
           transform="translate(319.8135,317.9237)"><path
             d="M 0,0 33.679,-129.053"
             style="fill:none;stroke:#ffffff;stroke-width:15;stroke-linecap:round;stroke-linejoin:round;stroke-miterlimit:4;stroke-dasharray:16.672, 33.344;stroke-dashoffset:0;stroke-opacity:1"
             id="path4118"
             inkscape:connector-curvature="0" /></g><g
           id="g4120"
           transform="translate(357.7021,172.7392)"><path
             d="m 0,0 1.894,-7.257 c 0,0 -2.106,-1.584 -6.563,-3.606"
             style="fill:none;stroke:#ffffff;stroke-width:15;stroke-linecap:round;stroke-linejoin:round;stroke-miterlimit:4;stroke-dasharray:none;stroke-opacity:1"
             id="path4122"
             inkscape:connector-curvature="0" /></g><g
           id="g4124"
           transform="translate(327.1514,154.7909)"><path
             d="m 0,0 c -6.073,-0.862 -13.06,-1.41 -21.01,-1.41 -18.104,0 -34.095,2.84 -45.771,5.768"
             style="fill:none;stroke:#ffffff;stroke-width:15;stroke-linecap:round;stroke-linejoin:round;stroke-miterlimit:4;stroke-dasharray:13.461, 26.922;stroke-dashoffset:0;stroke-opacity:1"
             id="path4126"
             inkscape:connector-curvature="0" /></g></g></g></g></svg>