<?xml version="1.0" encoding="UTF-8" standalone="no"?>
<!-- Created with Inkscape (http://www.inkscape.org/) -->

<svg
   xmlns:dc="http://purl.org/dc/elements/1.1/"
   xmlns:cc="http://creativecommons.org/ns#"
   xmlns:rdf="http://www.w3.org/1999/02/22-rdf-syntax-ns#"
   xmlns:svg="http://www.w3.org/2000/svg"
   xmlns="http://www.w3.org/2000/svg"
   xmlns:sodipodi="http://sodipodi.sourceforge.net/DTD/sodipodi-0.dtd"
   xmlns:inkscape="http://www.inkscape.org/namespaces/inkscape"
   version="1.1"
   id="svg2"
   xml:space="preserve"
   width="800"
   height="800"
   viewBox="0 0 800 800"
   sodipodi:docname="Pull.svg"
   inkscape:version="0.92.4 (5da689c313, 2019-01-14)"><metadata
     id="metadata8"><rdf:RDF><cc:Work
         rdf:about=""><dc:format>image/svg+xml</dc:format><dc:type
           rdf:resource="http://purl.org/dc/dcmitype/StillImage" /><dc:title></dc:title></cc:Work></rdf:RDF></metadata><defs
     id="defs6"><clipPath
       clipPathUnits="userSpaceOnUse"
       id="clipPath18"><path
         d="M 0,600 H 600 V 0 H 0 Z"
         id="path16"
         inkscape:connector-curvature="0" /></clipPath></defs><sodipodi:namedview
     pagecolor="#ffffff"
     bordercolor="#666666"
     borderopacity="1"
     objecttolerance="10"
     gridtolerance="10"
     guidetolerance="10"
     inkscape:pageopacity="0"
     inkscape:pageshadow="2"
     inkscape:window-width="653"
     inkscape:window-height="480"
     id="namedview4"
     showgrid="false"
     inkscape:zoom="0.295"
     inkscape:cx="400"
     inkscape:cy="400"
     inkscape:window-x="0"
     inkscape:window-y="0"
     inkscape:window-maximized="0"
     inkscape:current-layer="g10" /><g
     id="g10"
     inkscape:groupmode="layer"
     inkscape:label="Status Effect Icons"
     transform="matrix(1.3333333,0,0,-1.3333333,0,800)"><g
       id="g12"
       transform="matrix(-1,0,0,1,600,0)"><g
         id="g14"
         clip-path="url(#clipPath18)"><g
           id="g20"
           transform="translate(300,15.6523)"><path
             d="m 0,0 c -3.921,0 -7.608,1.527 -10.381,4.3 l -269.667,269.666 c -5.723,5.724 -5.723,15.039 0,20.763 l 269.667,269.667 c 2.773,2.772 6.46,4.299 10.381,4.299 3.922,0 7.608,-1.527 10.382,-4.299 L 280.048,294.729 c 5.723,-5.724 5.723,-15.039 0,-20.763 L 10.382,4.3 C 7.608,1.527 3.922,0 0,0"
             style="fill:#48484a;fill-opacity:1;fill-rule:nonzero;stroke:none"
             id="path22"
             inkscape:connector-curvature="0" /></g><g
           id="g24"
           transform="translate(300,589.3475)"><path
             d="m 0,0 c -5.037,0 -10.074,-1.921 -13.917,-5.765 l -269.666,-269.666 c -7.687,-7.686 -7.687,-20.147 0,-27.834 l 269.666,-269.666 c 3.843,-3.842 8.88,-5.764 13.917,-5.764 5.037,0 10.073,1.922 13.917,5.764 l 269.666,269.666 c 7.687,7.687 7.687,20.148 0,27.834 L 13.917,-5.765 C 10.073,-1.921 5.037,0 0,0 m 0,-10 c 2.586,0 5.018,-1.007 6.846,-2.835 l 269.667,-269.667 c 1.828,-1.828 2.835,-4.26 2.835,-6.846 0,-2.586 -1.007,-5.016 -2.836,-6.845 L 6.846,-565.859 c -1.828,-1.829 -4.26,-2.836 -6.846,-2.836 -2.586,0 -5.017,1.007 -6.846,2.836 l -269.666,269.666 c -1.829,1.829 -2.836,4.259 -2.836,6.845 0,2.586 1.007,5.018 2.836,6.846 L -6.846,-12.835 C -5.017,-11.007 -2.586,-10 0,-10"
             style="fill:#ffffff;fill-opacity:1;fill-rule:nonzero;stroke:none"
             id="path26"
             inkscape:connector-curvature="0" /></g><g
           id="g28"
           transform="translate(395.4141,257.0946)"><path
             d="m 0,0 h -137.893 c -3.497,0 -5.528,3.951 -3.484,6.79 5.243,7.284 12.227,20.01 12.227,36.115 0,16.106 -6.984,28.831 -12.227,36.116 -2.044,2.838 -0.013,6.79 3.484,6.79 H 0 Z"
             style="fill:#ffffff;fill-opacity:1;fill-rule:nonzero;stroke:none"
             id="path30"
             inkscape:connector-curvature="0" /></g><g
           id="g32"
           transform="translate(209.8921,257.0946)"><path
             d="m 0,0 h -49.732 c -3.498,0 -5.528,3.951 -3.485,6.79 5.243,7.284 12.228,20.01 12.228,36.115 0,16.106 -6.985,28.831 -12.228,36.116 -2.043,2.838 -0.013,6.79 3.485,6.79 H 0 c 3.843,0 7.516,-1.553 10.2,-4.303 C 15.911,75.655 24.417,63.484 24.417,42.905 24.417,22.326 15.911,10.155 10.2,4.303 7.516,1.553 3.843,0 0,0"
             style="fill:#ffffff;fill-opacity:1;fill-rule:nonzero;stroke:none"
             id="path34"
             inkscape:connector-curvature="0" /></g><g
           id="g36"
           transform="translate(105.8447,257.0946)"><path
             d="m 0,0 h -10.508 c -3.497,0 -5.528,3.951 -3.485,6.79 5.244,7.284 12.228,20.01 12.228,36.115 0,16.106 -6.984,28.831 -12.228,36.116 -2.043,2.838 -0.012,6.79 3.485,6.79 H 0 c 3.843,0 7.515,-1.553 10.199,-4.303 C 15.911,75.655 24.417,63.484 24.417,42.905 24.417,22.326 15.911,10.155 10.199,4.303 7.515,1.553 3.843,0 0,0"
             style="fill:#ffffff;fill-opacity:1;fill-rule:nonzero;stroke:none"
             id="path38"
             inkscape:connector-curvature="0" /></g><g
           id="g40"
           transform="translate(377.9307,203.6855)"><path
             d="m 0,0 129.023,92.403 c 2.679,1.919 2.679,5.904 0,7.823 L 0,192.629 c -2.637,1.889 -6.304,0.004 -6.304,-3.238 V 3.238 C -6.304,-0.004 -2.637,-1.889 0,0"
             style="fill:#ffffff;fill-opacity:1;fill-rule:nonzero;stroke:none"
             id="path42"
             inkscape:connector-curvature="0" /></g></g></g></g></svg>